<svg xmlns="http://www.w3.org/2000/svg" width="88" height="22" viewBox="0 0 88 22">
  <g id="Group_161" data-name="Group 161" transform="translate(-40 -4.212)">
    <path id="Union_2" data-name="Union 2" d="M78.681,19.79c-.084-1.916,1.891-2.875,3.586-3.4l.221-1.234a3.358,3.358,0,0,1-2.693,1.28,2.366,2.366,0,0,1-2.462-1.93,4.2,4.2,0,0,1-3.548,1.93,2.361,2.361,0,0,1-2.453-1.917,4.865,4.865,0,0,1-2.873,1.963l-.273,1.644C67.641,21.384,65.745,22,64.232,22a2.379,2.379,0,0,1-2.665-2.21c-.084-1.916,1.891-2.875,3.584-3.4l.222-1.212a3.511,3.511,0,0,1-2.694,1.257,2.928,2.928,0,0,1-2.845-1.884,3.409,3.409,0,0,1-3.076,1.884,2.558,2.558,0,0,1-2.82-2.585c-.068-1.556.84-4.372.781-5.837-.032-.756-.325-1.168-.876-1.168-.825,0-1.4.962-1.7,2.107l-1.234,7.353h-3.3l.205-1.218a4.11,4.11,0,0,1-3.076,1.347A2.357,2.357,0,0,1,42.3,14.553a3.39,3.39,0,0,1-3.025,1.882c-1.877,0-2.924-.937-3-2.608a5.246,5.246,0,0,1,.1-1.195l.143-.9a3.779,3.779,0,0,0,.056-.849c-.031-.665-.278-1.1-.875-1.1a2.75,2.75,0,0,0-1.659.85l-.94,5.669h-3.3L30,15.068a4.109,4.109,0,0,1-3.094,1.367c-1.372,0-2.482-.823-2.566-2.743a9.139,9.139,0,0,1,.1-1.488l1.237-7.34H28.99l-1.309,7.776a3.138,3.138,0,0,0-.059.732c.027.64.335.846.978.846a2.147,2.147,0,0,0,1.8-1.5L32.432.73,35.806.272l-1.2,7.1,3.537-2.524h3.383s-4.439,3.088-4.187,3.088a2.521,2.521,0,0,1,2.588,2.678,3.286,3.286,0,0,1-.067.872l-.2,1.147a3.827,3.827,0,0,0-.082.735c.021.459.221.849.932.849.935,0,1.327-.712,1.739-1.769.009-.08.02-.162.03-.244l1.237-7.34h3.312l-1.308,7.776a3.092,3.092,0,0,0-.059.732c.028.64.335.846.975.846a2.116,2.116,0,0,0,1.776-1.439l1.335-7.916h3.3l-.2,1.185a3.263,3.263,0,0,1,2.623-1.276A2.424,2.424,0,0,1,57.91,7.349c.082,1.855-.891,4.627-.833,5.907.027.571.272.962.96.962.725,0,1.125-.427,1.459-1.111-.011-.115-.019-.234-.025-.356-.135-3.093,1.549-8,5.536-8,1.306,0,1.878.5,1.906,1.156l.006.137.2-1.179h3.3l-1.8,10.614A4,4,0,0,0,71.306,12.4c.009-.066.02-.132.032-.2L73.278.73l3.37-.457L74.557,12.637a3.115,3.115,0,0,0-.059.733c.028.642.335.848.977.848a2.136,2.136,0,0,0,1.792-1.479q.03-.261.075-.538l1.233-7.355h3.3l-1.308,7.791a2.515,2.515,0,0,0-.045.571c.026.528.206,1.01.732,1.01.849,0,1.409-.8,1.707-1.88l1.274-7.492h3.3l-1.8,10.629a3.839,3.839,0,0,0,2.256-2.027,3.075,3.075,0,0,1-.168,1.259,2.922,2.922,0,0,1-2.252,1.774L85.3,18.125C84.755,21.384,82.858,22,81.345,22A2.378,2.378,0,0,1,78.681,19.79Zm1.248-.32a.82.82,0,0,0,.81.754c.482,0,1-.686,1.241-2.03l.108-.663C80.938,17.965,79.888,18.558,79.929,19.47Zm-17.116,0a.823.823,0,0,0,.812.754c.482,0,1-.686,1.24-2.03l.108-.663C63.824,17.965,62.773,18.558,62.813,19.47Zm.037-7.039c.076,1.764.811,1.787,1.222,1.787a2.111,2.111,0,0,0,1.757-1.787L66.758,7a.954.954,0,0,0-.977-.848C63.834,6.153,62.754,10.277,62.85,12.431ZM0,13.818c-.046-1.013.351-2.176,1.762-2.176a1.7,1.7,0,0,1,.925.173,1.672,1.672,0,0,0-.565,1.236,1.155,1.155,0,0,0,1.213,1.137,1.387,1.387,0,0,0,1.444-1.533,1.589,1.589,0,0,0-.794-1.187c-.844-.568-2.137-1.236-2.577-2.25-.029-.1-.111-.247-.138-.322a7.282,7.282,0,0,1-.188-.865L1.065,7.54C1.179,5.042,3.436,4.547,5,4.547a4.417,4.417,0,0,1,2.218.518,1.809,1.809,0,0,1,.9,1.545,1.511,1.511,0,0,1-1.586,1.65c-1.292,0-.711-1.488-1.4-1.488-.467,0-.825-.019-1.1.259a1.251,1.251,0,0,0-.223.878c.107,2.4,3.919,1.732,4.046,4.673.135,3.067-2.036,3.857-4.364,3.857C1.95,16.439.1,16.068,0,13.818Zm9.407-.128a7.428,7.428,0,0,1,.116-1.49l.952-5.627h-1.3l.28-1.728h1.3l.547-3.153,3.37-.457-.619,3.61h1.8L15.57,6.574h-1.8l-1.027,6.061a3.159,3.159,0,0,0-.059.733c.028.642.335.849.977.849a2.674,2.674,0,0,0,2.27-2.017h0l1.239-7.355h3.3l-.236,1.417a4.253,4.253,0,0,1,2.712-1.417A1.684,1.684,0,0,1,24.609,6.56a1.52,1.52,0,0,1-1.576,1.671c-1.283,0-.708-1.391-1.4-1.391a2.195,2.195,0,0,0-1.7,1.141c-.006.015-1.384,8.307-1.384,8.307h-3.3l.309-1.836a4.208,4.208,0,0,1-3.582,1.983C10.6,16.435,9.494,15.612,9.41,13.691ZM43.837,1.827A1.721,1.721,0,0,1,45.564,0a1.935,1.935,0,0,1,1.91,1.827,1.722,1.722,0,0,1-1.752,1.8A1.892,1.892,0,0,1,43.837,1.827ZM26,1.827A1.722,1.722,0,0,1,27.731,0a1.936,1.936,0,0,1,1.91,1.827,1.722,1.722,0,0,1-1.753,1.8A1.892,1.892,0,0,1,26,1.827Z" transform="translate(40 4.212)" fill="#fff"/>
  </g>
</svg>
